<?xml version="1.0" standalone="no"?><!DOCTYPE svg PUBLIC "-//W3C//DTD SVG 1.1//EN" "http://www.w3.org/Graphics/SVG/1.1/DTD/svg11.dtd"><svg t="1689821419765" class="icon" viewBox="0 0 1260 1024" version="1.1" xmlns="http://www.w3.org/2000/svg" p-id="3897" xmlns:xlink="http://www.w3.org/1999/xlink" width="246.09375" height="200"><path d="M118.153846 118.153846v787.692308h1024v-787.692308h-1024zM1170.274462 0C1219.820308 0 1260.307692 41.905231 1260.307692 93.105231v837.789538c0 51.2-40.487385 93.105231-90.03323 93.105231H90.033231C40.487385 1024 0 982.094769 0 930.894769V93.105231C0 41.905231 40.487385 0 90.033231 0h1080.241231z" fill="#666666" p-id="3898"></path><path d="M202.515692 157.538462C175.655385 157.538462 157.538462 176.443077 157.538462 204.8v378.092308c0 23.630769 18.038154 47.261538 44.97723 47.261538 27.017846 0 45.056-18.904615 45.056-47.261538V204.8c0-23.630769-18.038154-47.261538-45.056-47.261538z m855.276308 708.923076c26.939077 0 44.977231-18.904615 44.977231-47.261538V630.153846l-225.043693 236.307692h180.066462z" fill="#666666" p-id="3899"></path></svg>